<svg width="200" height="100" viewBox="0 0 200 100" fill="none" xmlns="http://www.w3.org/2000/svg">
<path d="M55.1042 34.9411H43.5993V67H50.8751V57.4505H55.1042C63.1985 57.4505 69.3829 55.9044 69.3829 46.1731C69.3829 36.4872 63.1985 34.9411 55.1042 34.9411ZM55.5589 51.0842H50.8751V41.3074H55.5589C59.8789 41.3074 62.1071 41.7621 62.1071 46.1731C62.1071 50.6295 59.8789 51.0842 55.5589 51.0842ZM76.9525 67.4547L95.915 67V60.6337L80.3175 61.0884V34.9411H73.0417V63.6349C73.0417 66.136 74.4514 67.5002 76.9525 67.4547ZM123.882 67H131.248L121.972 34.9411H106.965L97.7343 67H105.101L107.966 56.7229H120.971L123.882 67ZM109.739 50.3566L113.559 36.76H115.378L119.198 50.3566H109.739ZM150.459 34.9411L143.593 48.3103V52.4029H141.774V48.3103L134.953 34.9411H127.177L139.045 56.6775V67H146.321V56.6775L158.235 34.9411H150.459Z" fill="#E6E6E6"/>
<rect x="1" y="1" width="198" height="98" rx="49" stroke="#E6E6E6" stroke-width="2"/>
</svg>
