<svg width="200" height="100" viewBox="0 0 200 100" fill="none" xmlns="http://www.w3.org/2000/svg">
<path d="M69.174 58.1781C69.174 51.4935 60.1247 48.9469 54.2132 46.9461C49.0746 45.2181 48.3016 44.6724 48.3016 43.2173C48.3016 41.5802 50.3479 40.8526 53.622 40.8526C57.5782 40.8526 60.5795 41.944 60.5795 45.8547H67.8553C67.8553 39.4884 63.4443 34.4863 53.622 34.4863C45.3458 34.4863 41.0258 37.4876 41.0258 42.9444C41.0258 49.2198 46.5281 51.0387 53.3037 53.3124C57.9875 54.904 61.8982 55.9499 61.8982 58.2691C61.8982 59.9971 60.3521 61.0884 55.6683 61.0884C49.302 61.0884 46.8464 59.5423 46.8464 54.6312H39.5706C39.5706 62.7255 43.8906 67.4547 55.4409 67.4547C65.3087 67.4547 69.174 63.6804 69.174 58.1781ZM96.9414 34.9411H68.7022V41.3074H79.2066V67H86.4824V41.3074H96.9414V34.9411ZM97.3666 50.9478C97.3666 60.3154 103.551 67.4547 113.737 67.4547C123.878 67.4547 130.062 60.3154 130.062 50.9478C130.062 41.6257 123.878 34.4863 113.737 34.4863C103.551 34.4863 97.3666 41.6257 97.3666 50.9478ZM104.642 50.9478C104.642 44.8088 107.689 40.8526 113.737 40.8526C119.785 40.8526 122.786 44.8088 122.786 50.9478C122.786 57.1322 119.785 61.0884 113.737 61.0884C107.689 61.0884 104.642 57.1322 104.642 50.9478ZM145.696 34.9411H134.191V67H141.467V57.4505H145.696C153.791 57.4505 159.975 55.9044 159.975 46.1731C159.975 36.4872 153.791 34.9411 145.696 34.9411ZM146.151 51.0842H141.467V41.3074H146.151C150.471 41.3074 152.699 41.7621 152.699 46.1731C152.699 50.6295 150.471 51.0842 146.151 51.0842Z" fill="#E6E6E6"/>
<rect x="1" y="1" width="198" height="98" rx="49" stroke="#E6E6E6" stroke-width="2"/>
</svg>
